<svg viewBox="0 0 22 20" xmlns="http://www.w3.org/2000/svg" width="22" height="22" fill="#171a22"><path d="M17.875.375H4.125C1.788.375 0 2.163 0 4.5v11c0 2.337 1.788 4.125 4.125 4.125h13.75c2.337 0 4.125-1.788 4.125-4.125v-11C22 2.163 20.212.375 17.875.375zm-13.75 2.75h13.75c.825 0 1.375.55 1.375 1.375v.412l-8.25 5.5-8.25-5.5V4.5c0-.825.55-1.375 1.375-1.375zm13.75 13.75H4.125c-.825 0-1.375-.55-1.375-1.375V8.213l7.563 4.95c.137.137.412.274.687.274.275 0 .55-.137.825-.274l7.425-4.95V15.5c0 .825-.55 1.375-1.375 1.375z"/></svg>